<?xml version="1.0" encoding="utf-8"?>
<!-- Generator: Adobe Illustrator 23.0.3, SVG Export Plug-In . SVG Version: 6.00 Build 0)  -->
<svg version="1.1" id="Layer_1" xmlns="http://www.w3.org/2000/svg" xmlns:xlink="http://www.w3.org/1999/xlink" x="0px" y="0px"
	 viewBox="0 0 200 60" style="enable-background:new 0 0 200 60;" xml:space="preserve">
<style type="text/css">
	.st0{fill:#404041;}
	.st1{display:none;}
	.st2{display:inline;}
</style>
<g>
	<g>
		<g>
			<g>
				<path class="st0" d="M44,21.7v17H26.7c-4.7,0-8.8-1.7-12.2-5c-3.4-3.3-5.1-7.3-5.1-12c0-4.7,1.7-8.7,5.1-12.1
					c3.4-3.3,7.4-5,12.2-5c4.7,0,8.8,1.7,12.2,5C42.3,12.9,44,17,44,21.7z M36.8,31.9V21.7c0-2.8-1-5.2-2.9-7.3c-1.9-2-4.3-3-7.1-3
					c-2.8,0-5.2,1-7.1,3s-2.9,4.4-2.9,7.3c0,2.8,1,5.2,2.9,7.2c1.9,2,4.3,3,7.1,3H36.8z"/>
			</g>
			<g>
				<path class="st0" d="M52.4,45.1c-1.4,1.4-3.1,2.1-5,2.1V21.7c0-4.7,1.7-8.7,5.1-12.1c3.4-3.3,7.4-5,12.2-5c4.7,0,8.8,1.7,12.2,5
					c3.4,3.3,5.1,7.4,5.1,12.1c0,4.7-1.7,8.7-5.1,12c-3.4,3.3-7.5,5-12.2,5H54.5V40C54.5,42,53.8,43.7,52.4,45.1z M64.6,31.9
					c2.8,0,5.2-1,7.1-3c1.9-2,2.9-4.4,2.9-7.2c0-2.8-1-5.2-2.9-7.3c-1.9-2-4.3-3-7.1-3c-2.8,0-5.2,1-7.1,3c-1.9,2-2.9,4.4-2.9,7.3
					v10.2H64.6z"/>
			</g>
			<g>
				<path class="st0" d="M101.8,38.6c-4.7,0-8.8-1.7-12.1-5c-3.4-3.3-5.1-7.3-5.1-12c0-4.7,1.7-8.7,5.1-12.1c3.4-3.3,7.4-5,12.1-5
					h10c0,1.9-0.7,3.5-2,4.8c-1.3,1.3-2.9,2-4.8,2h-3.3c-2.8,0-5.2,1-7.2,3c-2,2-3,4.4-3,7.3c0,2.8,1,5.2,3,7.2c2,2,4.4,3,7.2,3h3.3
					c1.9,0,3.5,0.7,4.8,2c1.3,1.3,2,2.9,2,4.8H101.8z"/>
			</g>
		</g>
		<g>
			<g>
				<path class="st0" d="M120.3,31.5c0,2-0.7,3.6-2.1,5c-1.4,1.4-3.1,2.1-5,2.1V21.6c0-4.7,1.7-8.7,5.1-12c3.4-3.3,7.4-5,12.2-5h10
					c0,1.9-0.7,3.5-2,4.8s-2.9,2-4.8,2h-3.3c-2.8,0-5.2,1-7.2,3c-2,2-2.9,4.4-2.9,7.2V31.5z M125.6,19.2c-0.6,0.7-1,1.5-1,2.4
					c0,0.9,0.3,1.7,1,2.4c0.7,0.6,1.4,1,2.4,1h5.7c1.9,0,3.5-0.7,4.8-2c1.3-1.3,2-2.9,2-4.8H128C127,18.2,126.2,18.5,125.6,19.2z"/>
			</g>
		</g>
		<g>
			<g>
				<path class="st0" d="M145,17.9c0-3.7,1.3-6.8,4-9.4c2.7-2.6,5.8-3.9,9.6-3.9h9.8c0,1.9-0.7,3.5-2,4.8c-1.3,1.3-3,2-4.9,2h-1.5
					c-2.2,0-4.1,0.8-5.6,2.4c-1.5,1.6-2.3,3.5-2.3,5.7v5.9c0,3.7-1.3,6.8-4,9.4c-2.6,2.6-5.8,3.9-9.5,3.9h-9.8c0-1.9,0.7-3.5,2-4.8
					c1.3-1.3,2.9-2,4.8-2h1.5c2.2,0,4.1-0.8,5.6-2.4c1.5-1.6,2.3-3.5,2.3-5.7V17.9z"/>
			</g>
		</g>
		<g>
			<g>
				<path class="st0" d="M166.4,17.9c0-3.7,1.3-6.8,4-9.4c2.7-2.6,5.8-3.9,9.6-3.9h9.8c0,1.9-0.7,3.5-2,4.8c-1.3,1.3-3,2-4.9,2h-1.5
					c-2.2,0-4.1,0.8-5.6,2.4c-1.5,1.6-2.3,3.5-2.3,5.7v5.9c0,3.7-1.3,6.8-4,9.4c-2.6,2.6-5.8,3.9-9.5,3.9h-9.8c0-1.9,0.7-3.5,2-4.8
					c1.3-1.3,2.9-2,4.8-2h1.5c2.2,0,4.1-0.8,5.6-2.4c1.5-1.6,2.3-3.5,2.3-5.7V17.9z"/>
			</g>
		</g>
	</g>
	<g class="st1">
		<g class="st2">
			<defs>
				<path id="SVGID_1_" d="M109.3,14.1c-1.1,0.9-2.2,1.8-3.4,2.7c0,0-0.1,0.1-0.1,0.1l2-0.2c0,0.2,0,0.3,0,0.5c-0.1,1-0.5,2-1,3
					c-1.1,2.3-2.7,4.3-4.4,6.1c-3.7,3.8-8,6.7-12.8,9c-2.3,1.1-4.7,2-7.3,2.3c-1.8,0.2-3.6,0.2-5.4-0.5c0,0,0,0.1,0,0.1
					c0.6,1.1,1.4,1.8,2.6,2.2c1.1,0.4,2.2,0.4,3.3,0.3c1.4-0.1,2.8-0.4,4.1-0.8c1.9-0.6,3.7-1.3,5.5-2.2c3.8-1.8,7.3-3.8,10.4-6.6
					c2.7-2.4,5.1-5.1,6.9-8.2c0.9-1.5,1.6-3,1.9-4.7c0,0,0-0.1,0.1-0.1c0.4,0.2,0.9,0.3,1.3,0.5c-0.7-1-1.4-2-2.4-2.8
					c-0.3-0.2-0.6-0.4-1-0.7c-0.1,0-0.1-0.1-0.2-0.1C109.5,14,109.4,14,109.3,14.1"/>
			</defs>
			<use xlink:href="#SVGID_1_"  style="overflow:visible;fill:#25A9E0;"/>
			<clipPath id="SVGID_2_">
				<use xlink:href="#SVGID_1_"  style="overflow:visible;"/>
			</clipPath>
		</g>
		<g class="st2">
			<defs>
				<path id="SVGID_3_" d="M102.2,17.9c-0.8,0.6-1.7,1.3-2.5,1.9c0,0-0.1,0.1-0.1,0.1l1.4-0.1c0,0.1,0,0.2,0,0.4
					c-0.1,0.7-0.3,1.3-0.6,1.9c-0.9,1.8-2.1,3.3-3.6,4.7c-2.2,2.2-4.7,3.9-7.5,5.3c-2.2,1.2-4.5,2.1-7,2.5c-1.5,0.2-3,0.2-4.5-0.4
					c0,0,0,0.1,0,0.1c0,0.1,0.1,0.2,0.1,0.2c0.6,1.1,1.7,1.5,2.9,1.7c1.5,0.2,2.9-0.1,4.3-0.5c2-0.6,4-1.4,5.9-2.3
					c4.5-2.1,8.1-5.2,10.9-9.2c0.9-1.3,1.7-2.6,2-4.1c0,0,0,0,0-0.1c0.3,0.1,0.6,0.2,1,0.4c0-0.1-0.1-0.1-0.1-0.2
					c-0.4-0.5-0.8-1-1.2-1.5c-0.3-0.3-0.7-0.6-1-0.9c-0.1,0-0.1-0.1-0.2-0.1C102.4,17.8,102.3,17.9,102.2,17.9"/>
			</defs>
			<use xlink:href="#SVGID_3_"  style="overflow:visible;fill:#37B34A;"/>
			<clipPath id="SVGID_4_">
				<use xlink:href="#SVGID_3_"  style="overflow:visible;"/>
			</clipPath>
		</g>
		<g class="st2">
			<defs>
				<path id="SVGID_5_" d="M96.5,21c-0.6,0.4-1.1,0.8-1.7,1.2c0,0-0.1,0.1-0.1,0.1l1.1-0.1c-0.1,0.4-0.2,0.8-0.4,1.2
					c-0.4,1-1,1.9-1.8,2.7c-2.5,2.7-5.6,4.7-9.1,5.9c-1.7,0.6-3.4,0.9-5.2,0.3c0.3,0.6,0.7,1,1.4,1.2c0.6,0.2,1.2,0.2,1.8,0.2
					c1-0.1,2-0.4,3-0.7c2.6-0.9,5.1-2.1,7.2-3.8c2.3-1.9,4.2-3.9,5.1-6.7c0.2,0.1,0.4,0.1,0.6,0.2c-0.1-0.2-0.2-0.4-0.3-0.5
					c-0.4-0.4-0.7-0.9-1.2-1.2c-0.1,0-0.1-0.1-0.2-0.1C96.6,21,96.6,21,96.5,21"/>
			</defs>
			<use xlink:href="#SVGID_5_"  style="overflow:visible;fill:#8BC53F;"/>
			<clipPath id="SVGID_6_">
				<use xlink:href="#SVGID_5_"  style="overflow:visible;"/>
			</clipPath>
		</g>
	</g>
	<g class="st1">
		<g class="st2">
			<defs>
				<path id="SVGID_7_" d="M109.3,14.1c-1.1,0.9-2.2,1.8-3.4,2.7c0,0-0.1,0.1-0.1,0.1l2-0.2c0,0.2,0,0.3,0,0.5c-0.1,1-0.5,2-1,3
					c-1.1,2.3-2.7,4.3-4.4,6.1c-3.7,3.8-8,6.7-12.8,9c-2.3,1.1-4.7,2-7.3,2.3c-1.8,0.2-3.6,0.2-5.4-0.5c0,0,0,0.1,0,0.1
					c0.6,1.1,1.4,1.8,2.6,2.2c1.1,0.4,2.2,0.4,3.3,0.3c1.4-0.1,2.8-0.4,4.1-0.8c1.9-0.6,3.7-1.3,5.5-2.2c3.8-1.8,7.3-3.8,10.4-6.6
					c2.7-2.4,5.1-5.1,6.9-8.2c0.9-1.5,1.6-3,1.9-4.7c0,0,0-0.1,0.1-0.1c0.4,0.2,0.9,0.3,1.3,0.5c-0.7-1-1.4-2-2.4-2.8
					c-0.3-0.2-0.6-0.4-1-0.7c-0.1,0-0.1-0.1-0.2-0.1C109.5,14,109.4,14,109.3,14.1"/>
			</defs>
			<use xlink:href="#SVGID_7_"  style="overflow:visible;fill:#25A9E0;"/>
			<clipPath id="SVGID_8_">
				<use xlink:href="#SVGID_7_"  style="overflow:visible;"/>
			</clipPath>
		</g>
		<g class="st2">
			<defs>
				<path id="SVGID_9_" d="M102.2,17.9c-0.8,0.6-1.7,1.3-2.5,1.9c0,0-0.1,0.1-0.1,0.1l1.4-0.1c0,0.1,0,0.2,0,0.4
					c-0.1,0.7-0.3,1.3-0.6,1.9c-0.9,1.8-2.1,3.3-3.6,4.7c-2.2,2.2-4.7,3.9-7.5,5.3c-2.2,1.2-4.5,2.1-7,2.5c-1.5,0.2-3,0.2-4.5-0.4
					c0,0,0,0.1,0,0.1c0,0.1,0.1,0.2,0.1,0.2c0.6,1.1,1.7,1.5,2.9,1.7c1.5,0.2,2.9-0.1,4.3-0.5c2-0.6,4-1.4,5.9-2.3
					c4.5-2.1,8.1-5.2,10.9-9.2c0.9-1.3,1.7-2.6,2-4.1c0,0,0,0,0-0.1c0.3,0.1,0.6,0.2,1,0.4c0-0.1-0.1-0.1-0.1-0.2
					c-0.4-0.5-0.8-1-1.2-1.5c-0.3-0.3-0.7-0.6-1-0.9c-0.1,0-0.1-0.1-0.2-0.1C102.4,17.8,102.3,17.9,102.2,17.9"/>
			</defs>
			<use xlink:href="#SVGID_9_"  style="overflow:visible;fill:#37B34A;"/>
			<clipPath id="SVGID_10_">
				<use xlink:href="#SVGID_9_"  style="overflow:visible;"/>
			</clipPath>
		</g>
		<g class="st2">
			<defs>
				<path id="SVGID_11_" d="M96.5,21c-0.6,0.4-1.1,0.8-1.7,1.2c0,0-0.1,0.1-0.1,0.1l1.1-0.1c-0.1,0.4-0.2,0.8-0.4,1.2
					c-0.4,1-1,1.9-1.8,2.7c-2.5,2.7-5.6,4.7-9.1,5.9c-1.7,0.6-3.4,0.9-5.2,0.3c0.3,0.6,0.7,1,1.4,1.2c0.6,0.2,1.2,0.2,1.8,0.2
					c1-0.1,2-0.4,3-0.7c2.6-0.9,5.1-2.1,7.2-3.8c2.3-1.9,4.2-3.9,5.1-6.7c0.2,0.1,0.4,0.1,0.6,0.2c-0.1-0.2-0.2-0.4-0.3-0.5
					c-0.4-0.4-0.7-0.9-1.2-1.2c-0.1,0-0.1-0.1-0.2-0.1C96.6,21,96.6,21,96.5,21"/>
			</defs>
			<use xlink:href="#SVGID_11_"  style="overflow:visible;fill:#8BC53F;"/>
			<clipPath id="SVGID_12_">
				<use xlink:href="#SVGID_11_"  style="overflow:visible;"/>
			</clipPath>
		</g>
	</g>
	<g>
		<path class="st0" d="M60.3,45.8h-1.8l-0.3,0.9h-0.7l1.5-4.3h0.8l1.5,4.3h-0.7L60.3,45.8z M60.1,45.2l-0.7-2l-0.7,2H60.1z"/>
		<path class="st0" d="M64.5,43.3c0.2,0.1,0.4,0.3,0.5,0.5c0.1,0.2,0.2,0.5,0.2,0.8v2h-0.7v-1.9c0-0.3-0.1-0.5-0.2-0.7
			s-0.4-0.2-0.6-0.2c-0.3,0-0.5,0.1-0.6,0.2c-0.2,0.2-0.2,0.4-0.2,0.7v1.9h-0.7v-3.4h0.7v0.4c0.1-0.1,0.3-0.3,0.4-0.3
			c0.2-0.1,0.4-0.1,0.6-0.1C64.1,43.2,64.3,43.2,64.5,43.3z"/>
		<path class="st0" d="M66.1,44c0.1-0.3,0.3-0.5,0.6-0.6c0.2-0.1,0.5-0.2,0.8-0.2c0.2,0,0.4,0,0.7,0.1c0.2,0.1,0.4,0.2,0.5,0.4v-1.6
			h0.7v4.6h-0.7v-0.5c-0.1,0.2-0.3,0.3-0.5,0.4s-0.4,0.2-0.7,0.2c-0.3,0-0.6-0.1-0.8-0.2c-0.2-0.2-0.4-0.4-0.6-0.6
			c-0.1-0.3-0.2-0.6-0.2-0.9S65.9,44.3,66.1,44z M68.5,44.3c-0.1-0.2-0.2-0.3-0.4-0.4c-0.2-0.1-0.3-0.1-0.5-0.1s-0.4,0-0.5,0.1
			c-0.2,0.1-0.3,0.2-0.4,0.4c-0.1,0.2-0.1,0.4-0.1,0.6s0,0.4,0.1,0.6c0.1,0.2,0.2,0.3,0.4,0.4c0.2,0.1,0.3,0.1,0.5,0.1
			c0.2,0,0.4,0,0.5-0.1c0.2-0.1,0.3-0.2,0.4-0.4c0.1-0.2,0.1-0.4,0.1-0.6C68.7,44.7,68.6,44.5,68.5,44.3z"/>
		<path class="st0" d="M72.8,43.3c0.2,0.1,0.4,0.3,0.5,0.5c0.1,0.2,0.2,0.5,0.2,0.8v2h-0.7v-1.9c0-0.3-0.1-0.5-0.2-0.7
			s-0.4-0.2-0.6-0.2c-0.3,0-0.5,0.1-0.6,0.2c-0.2,0.2-0.2,0.4-0.2,0.7v1.9h-0.7v-4.6H71v1.6c0.1-0.1,0.3-0.3,0.5-0.3
			c0.2-0.1,0.4-0.1,0.6-0.1C72.3,43.2,72.6,43.2,72.8,43.3z"/>
		<path class="st0" d="M75.4,43.3c0.2-0.1,0.4-0.1,0.6-0.1v0.7h-0.2c-0.3,0-0.5,0.1-0.6,0.2S75,44.5,75,44.9v1.8h-0.7v-3.4H75v0.5
			C75.1,43.6,75.3,43.4,75.4,43.3z"/>
		<path class="st0" d="M76.7,44c0.1-0.3,0.3-0.5,0.6-0.6c0.2-0.1,0.5-0.2,0.8-0.2c0.3,0,0.5,0.1,0.7,0.2s0.4,0.2,0.5,0.4v-0.5H80
			v3.4h-0.7v-0.5c-0.1,0.2-0.3,0.3-0.5,0.4s-0.4,0.2-0.7,0.2c-0.3,0-0.6-0.1-0.8-0.2c-0.2-0.2-0.4-0.4-0.6-0.6
			c-0.1-0.3-0.2-0.6-0.2-0.9S76.5,44.3,76.7,44z M79.1,44.3c-0.1-0.2-0.2-0.3-0.4-0.4c-0.2-0.1-0.3-0.1-0.5-0.1s-0.4,0-0.5,0.1
			c-0.2,0.1-0.3,0.2-0.4,0.4c-0.1,0.2-0.1,0.4-0.1,0.6s0,0.4,0.1,0.6c0.1,0.2,0.2,0.3,0.4,0.4c0.2,0.1,0.3,0.1,0.5,0.1
			c0.2,0,0.4,0,0.5-0.1c0.2-0.1,0.3-0.2,0.4-0.4c0.1-0.2,0.1-0.4,0.1-0.6C79.3,44.7,79.2,44.5,79.1,44.3z"/>
		<path class="st0" d="M85.4,44.2c-0.1,0.2-0.3,0.4-0.5,0.5c-0.2,0.1-0.5,0.2-0.9,0.2h-0.8v1.7h-0.7v-4.3H84c0.3,0,0.6,0.1,0.8,0.2
			c0.2,0.1,0.4,0.3,0.5,0.5s0.2,0.4,0.2,0.7C85.5,43.8,85.5,44.1,85.4,44.2z M84.6,44.1c0.1-0.1,0.2-0.3,0.2-0.5
			c0-0.5-0.3-0.7-0.8-0.7h-0.8v1.4H84C84.3,44.3,84.5,44.3,84.6,44.1z"/>
		<path class="st0" d="M87.3,43.3c0.2-0.1,0.4-0.1,0.6-0.1v0.7h-0.2c-0.3,0-0.5,0.1-0.6,0.2s-0.2,0.4-0.2,0.7v1.8h-0.7v-3.4h0.7v0.5
			C87,43.6,87.1,43.4,87.3,43.3z"/>
		<path class="st0" d="M88.6,44c0.1-0.3,0.3-0.5,0.6-0.6c0.2-0.1,0.5-0.2,0.8-0.2c0.3,0,0.5,0.1,0.7,0.2s0.4,0.2,0.5,0.4v-0.5h0.7
			v3.4h-0.7v-0.5c-0.1,0.2-0.3,0.3-0.5,0.4s-0.4,0.2-0.7,0.2c-0.3,0-0.6-0.1-0.8-0.2c-0.2-0.2-0.4-0.4-0.6-0.6
			c-0.1-0.3-0.2-0.6-0.2-0.9S88.4,44.3,88.6,44z M91,44.3c-0.1-0.2-0.2-0.3-0.4-0.4c-0.2-0.1-0.3-0.1-0.5-0.1s-0.4,0-0.5,0.1
			c-0.2,0.1-0.3,0.2-0.4,0.4c-0.1,0.2-0.1,0.4-0.1,0.6s0,0.4,0.1,0.6c0.1,0.2,0.2,0.3,0.4,0.4c0.2,0.1,0.3,0.1,0.5,0.1
			c0.2,0,0.4,0,0.5-0.1c0.2-0.1,0.3-0.2,0.4-0.4c0.1-0.2,0.1-0.4,0.1-0.6C91.1,44.7,91.1,44.5,91,44.3z"/>
		<path class="st0" d="M92.8,44c0.1-0.3,0.3-0.5,0.6-0.6c0.2-0.1,0.5-0.2,0.8-0.2c0.2,0,0.4,0,0.7,0.1c0.2,0.1,0.4,0.2,0.5,0.4v-1.6
			H96v4.6h-0.7v-0.5c-0.1,0.2-0.3,0.3-0.5,0.4s-0.4,0.2-0.7,0.2c-0.3,0-0.6-0.1-0.8-0.2c-0.2-0.2-0.4-0.4-0.6-0.6
			c-0.1-0.3-0.2-0.6-0.2-0.9S92.6,44.3,92.8,44z M95.2,44.3c-0.1-0.2-0.2-0.3-0.4-0.4c-0.2-0.1-0.3-0.1-0.5-0.1s-0.4,0-0.5,0.1
			c-0.2,0.1-0.3,0.2-0.4,0.4c-0.1,0.2-0.1,0.4-0.1,0.6s0,0.4,0.1,0.6c0.1,0.2,0.2,0.3,0.4,0.4c0.2,0.1,0.3,0.1,0.5,0.1
			c0.2,0,0.4,0,0.5-0.1c0.2-0.1,0.3-0.2,0.4-0.4c0.1-0.2,0.1-0.4,0.1-0.6C95.3,44.7,95.3,44.5,95.2,44.3z"/>
		<path class="st0" d="M100.1,45.2h-2.6c0,0.3,0.1,0.5,0.3,0.7s0.4,0.2,0.7,0.2c0.4,0,0.6-0.2,0.8-0.5h0.8c-0.1,0.3-0.3,0.6-0.6,0.8
			c-0.3,0.2-0.6,0.3-1,0.3c-0.3,0-0.6-0.1-0.9-0.2s-0.5-0.4-0.6-0.6s-0.2-0.6-0.2-0.9c0-0.4,0.1-0.7,0.2-0.9
			c0.1-0.3,0.3-0.5,0.6-0.6c0.3-0.1,0.6-0.2,0.9-0.2c0.3,0,0.6,0.1,0.9,0.2s0.4,0.3,0.6,0.6c0.1,0.3,0.2,0.5,0.2,0.9
			C100.1,45,100.1,45.1,100.1,45.2z M99.4,44.6c0-0.3-0.1-0.5-0.3-0.6c-0.2-0.2-0.4-0.2-0.7-0.2c-0.2,0-0.5,0.1-0.6,0.2
			c-0.2,0.2-0.3,0.4-0.3,0.6H99.4z"/>
		<path class="st0" d="M101.3,46.6c-0.2-0.1-0.4-0.2-0.5-0.4c-0.1-0.2-0.2-0.4-0.2-0.6h0.7c0,0.1,0.1,0.3,0.2,0.4
			c0.1,0.1,0.3,0.1,0.5,0.1c0.2,0,0.4,0,0.5-0.1c0.1-0.1,0.2-0.2,0.2-0.3c0-0.1-0.1-0.2-0.2-0.3c-0.1-0.1-0.3-0.1-0.6-0.2
			c-0.3-0.1-0.5-0.1-0.6-0.2c-0.2-0.1-0.3-0.2-0.4-0.3c-0.1-0.1-0.2-0.3-0.2-0.5c0-0.2,0.1-0.3,0.2-0.5c0.1-0.2,0.3-0.3,0.5-0.4
			c0.2-0.1,0.4-0.1,0.7-0.1c0.4,0,0.7,0.1,0.9,0.3s0.4,0.5,0.4,0.8h-0.7c0-0.2-0.1-0.3-0.2-0.4s-0.3-0.1-0.5-0.1
			c-0.2,0-0.3,0-0.4,0.1c-0.1,0.1-0.2,0.2-0.2,0.3c0,0.1,0,0.2,0.1,0.2c0.1,0.1,0.1,0.1,0.2,0.1s0.2,0.1,0.4,0.1
			c0.2,0.1,0.5,0.1,0.6,0.2c0.2,0.1,0.3,0.2,0.4,0.3c0.1,0.1,0.2,0.3,0.2,0.5c0,0.2-0.1,0.4-0.2,0.5c-0.1,0.2-0.3,0.3-0.5,0.4
			c-0.2,0.1-0.4,0.1-0.7,0.1C101.8,46.7,101.5,46.7,101.3,46.6z"/>
		<path class="st0" d="M106.6,43.3c0.2,0.1,0.4,0.3,0.5,0.5c0.1,0.2,0.2,0.5,0.2,0.8v2h-0.7v-1.9c0-0.3-0.1-0.5-0.2-0.7
			c-0.2-0.2-0.4-0.2-0.6-0.2c-0.3,0-0.5,0.1-0.6,0.2c-0.2,0.2-0.2,0.4-0.2,0.7v1.9h-0.7v-4.6h0.7v1.6c0.1-0.1,0.3-0.3,0.5-0.3
			c0.2-0.1,0.4-0.1,0.6-0.1C106.1,43.2,106.4,43.2,106.6,43.3z"/>
		<path class="st0" d="M109.8,43.4c0.2-0.3,0.5-0.6,0.8-0.8c0.3-0.2,0.7-0.3,1.1-0.3c0.5,0,0.9,0.1,1.2,0.3c0.4,0.2,0.6,0.5,0.8,1
			h-0.8c-0.1-0.2-0.3-0.4-0.5-0.5c-0.2-0.1-0.4-0.2-0.7-0.2c-0.3,0-0.5,0.1-0.8,0.2c-0.2,0.1-0.4,0.3-0.5,0.6
			c-0.1,0.2-0.2,0.5-0.2,0.8c0,0.3,0.1,0.6,0.2,0.8s0.3,0.4,0.5,0.6c0.2,0.1,0.5,0.2,0.8,0.2c0.3,0,0.5-0.1,0.7-0.2
			c0.2-0.1,0.4-0.3,0.5-0.5h0.8c-0.2,0.4-0.4,0.7-0.8,1c-0.4,0.2-0.8,0.3-1.2,0.3c-0.4,0-0.8-0.1-1.1-0.3c-0.3-0.2-0.6-0.4-0.8-0.8
			c-0.2-0.3-0.3-0.7-0.3-1.1C109.5,44.1,109.6,43.7,109.8,43.4z"/>
		<path class="st0" d="M117.6,45.2H115c0,0.3,0.1,0.5,0.3,0.7c0.2,0.2,0.4,0.2,0.7,0.2c0.4,0,0.6-0.2,0.8-0.5h0.8
			c-0.1,0.3-0.3,0.6-0.6,0.8c-0.3,0.2-0.6,0.3-1,0.3c-0.3,0-0.6-0.1-0.9-0.2s-0.5-0.4-0.6-0.6s-0.2-0.6-0.2-0.9
			c0-0.4,0.1-0.7,0.2-0.9s0.3-0.5,0.6-0.6c0.3-0.1,0.6-0.2,0.9-0.2c0.3,0,0.6,0.1,0.9,0.2s0.4,0.3,0.6,0.6s0.2,0.5,0.2,0.9
			C117.7,45,117.7,45.1,117.6,45.2z M116.9,44.6c0-0.3-0.1-0.5-0.3-0.6c-0.2-0.2-0.4-0.2-0.7-0.2c-0.2,0-0.5,0.1-0.6,0.2
			c-0.2,0.2-0.3,0.4-0.3,0.6H116.9z"/>
		<path class="st0" d="M120.8,43.3c0.2,0.1,0.4,0.3,0.5,0.5c0.1,0.2,0.2,0.5,0.2,0.8v2h-0.7v-1.9c0-0.3-0.1-0.5-0.2-0.7
			c-0.2-0.2-0.4-0.2-0.6-0.2c-0.3,0-0.5,0.1-0.6,0.2c-0.2,0.2-0.2,0.4-0.2,0.7v1.9h-0.7v-3.4h0.7v0.4c0.1-0.1,0.3-0.3,0.4-0.3
			c0.2-0.1,0.4-0.1,0.6-0.1C120.3,43.2,120.6,43.2,120.8,43.3z"/>
		<path class="st0" d="M123.2,43.8v1.9c0,0.1,0,0.2,0.1,0.3c0.1,0.1,0.2,0.1,0.3,0.1h0.4v0.6h-0.6c-0.3,0-0.6-0.1-0.7-0.2
			c-0.2-0.1-0.3-0.4-0.3-0.7v-1.9h-0.4v-0.6h0.4v-0.8h0.7v0.8h0.8v0.6H123.2z"/>
		<path class="st0" d="M125.8,43.3c0.2-0.1,0.4-0.1,0.6-0.1v0.7h-0.2c-0.3,0-0.5,0.1-0.6,0.2s-0.2,0.4-0.2,0.7v1.8h-0.7v-3.4h0.7
			v0.5C125.5,43.6,125.6,43.4,125.8,43.3z"/>
		<path class="st0" d="M130.2,45.2h-2.6c0,0.3,0.1,0.5,0.3,0.7c0.2,0.2,0.4,0.2,0.7,0.2c0.4,0,0.6-0.2,0.8-0.5h0.8
			c-0.1,0.3-0.3,0.6-0.6,0.8c-0.3,0.2-0.6,0.3-1,0.3c-0.3,0-0.6-0.1-0.9-0.2s-0.5-0.4-0.6-0.6s-0.2-0.6-0.2-0.9
			c0-0.4,0.1-0.7,0.2-0.9s0.3-0.5,0.6-0.6c0.3-0.1,0.6-0.2,0.9-0.2c0.3,0,0.6,0.1,0.9,0.2s0.4,0.3,0.6,0.6s0.2,0.5,0.2,0.9
			C130.2,45,130.2,45.1,130.2,45.2z M129.5,44.6c0-0.3-0.1-0.5-0.3-0.6c-0.2-0.2-0.4-0.2-0.7-0.2c-0.2,0-0.5,0.1-0.6,0.2
			c-0.2,0.2-0.3,0.4-0.3,0.6H129.5z"/>
		<path class="st0" d="M133.9,43.8h-0.6v2.8h-0.7v-2.8h-0.4v-0.6h0.4V43c0-0.4,0.1-0.7,0.3-0.9c0.2-0.2,0.5-0.3,1-0.3v0.6
			c-0.2,0-0.4,0-0.5,0.1c-0.1,0.1-0.1,0.2-0.1,0.4v0.2h0.6V43.8z"/>
		<path class="st0" d="M135.2,46.5c-0.3-0.1-0.5-0.4-0.6-0.6c-0.1-0.3-0.2-0.6-0.2-0.9c0-0.3,0.1-0.7,0.2-0.9
			c0.2-0.3,0.4-0.5,0.6-0.6s0.6-0.2,0.9-0.2c0.3,0,0.6,0.1,0.9,0.2s0.5,0.4,0.6,0.6c0.2,0.3,0.2,0.6,0.2,0.9c0,0.3-0.1,0.7-0.2,0.9
			c-0.2,0.3-0.4,0.5-0.6,0.6s-0.6,0.2-0.9,0.2C135.7,46.7,135.4,46.6,135.2,46.5z M136.5,46c0.2-0.1,0.3-0.2,0.4-0.4
			c0.1-0.2,0.1-0.4,0.1-0.6c0-0.2,0-0.5-0.1-0.6c-0.1-0.2-0.2-0.3-0.4-0.4s-0.3-0.1-0.5-0.1c-0.2,0-0.4,0-0.5,0.1
			c-0.2,0.1-0.3,0.2-0.4,0.4c-0.1,0.2-0.1,0.4-0.1,0.6c0,0.4,0.1,0.7,0.3,0.9c0.2,0.2,0.4,0.3,0.7,0.3C136.2,46.1,136.4,46,136.5,46
			z"/>
		<path class="st0" d="M139.6,43.3c0.2-0.1,0.4-0.1,0.6-0.1v0.7h-0.2c-0.3,0-0.5,0.1-0.6,0.2s-0.2,0.4-0.2,0.7v1.8h-0.7v-3.4h0.7
			v0.5C139.3,43.6,139.5,43.4,139.6,43.3z"/>
		<path class="st0" d="M60.3,47.8v0.6h-1.8v1.3h1.4v0.6h-1.4v1.9h-0.7v-4.3H60.3z"/>
		<path class="st0" d="M61,48.1c-0.1-0.1-0.1-0.2-0.1-0.3s0-0.2,0.1-0.3s0.2-0.1,0.3-0.1c0.1,0,0.2,0,0.3,0.1
			c0.1,0.1,0.1,0.2,0.1,0.3s0,0.2-0.1,0.3c-0.1,0.1-0.2,0.1-0.3,0.1C61.2,48.2,61.1,48.2,61,48.1z M61.6,48.7v3.4h-0.7v-3.4H61.6z"
			/>
		<path class="st0" d="M65,48.8c0.2,0.1,0.4,0.3,0.5,0.5c0.1,0.2,0.2,0.5,0.2,0.8v2H65v-1.9c0-0.3-0.1-0.5-0.2-0.7s-0.4-0.2-0.6-0.2
			c-0.3,0-0.5,0.1-0.6,0.2c-0.2,0.2-0.2,0.4-0.2,0.7v1.9h-0.7v-3.4h0.7V49c0.1-0.1,0.3-0.3,0.4-0.3c0.2-0.1,0.4-0.1,0.6-0.1
			C64.6,48.6,64.8,48.7,65,48.8z"/>
		<path class="st0" d="M66.6,49.4c0.1-0.3,0.3-0.5,0.6-0.6c0.2-0.1,0.5-0.2,0.8-0.2c0.3,0,0.5,0.1,0.7,0.2s0.4,0.2,0.5,0.4v-0.5h0.7
			v3.4h-0.7v-0.5c-0.1,0.2-0.3,0.3-0.5,0.4s-0.4,0.2-0.7,0.2c-0.3,0-0.6-0.1-0.8-0.2c-0.2-0.2-0.4-0.4-0.6-0.6
			c-0.1-0.3-0.2-0.6-0.2-0.9S66.4,49.7,66.6,49.4z M69,49.7c-0.1-0.2-0.2-0.3-0.4-0.4c-0.2-0.1-0.3-0.1-0.5-0.1s-0.4,0-0.5,0.1
			c-0.2,0.1-0.3,0.2-0.4,0.4c-0.1,0.2-0.1,0.4-0.1,0.6s0,0.4,0.1,0.6c0.1,0.2,0.2,0.3,0.4,0.4c0.2,0.1,0.3,0.1,0.5,0.1
			c0.2,0,0.4,0,0.5-0.1c0.2-0.1,0.3-0.2,0.4-0.4c0.1-0.2,0.1-0.4,0.1-0.6C69.2,50.1,69.1,49.9,69,49.7z"/>
		<path class="st0" d="M73.2,48.8c0.2,0.1,0.4,0.3,0.5,0.5c0.1,0.2,0.2,0.5,0.2,0.8v2h-0.7v-1.9c0-0.3-0.1-0.5-0.2-0.7
			s-0.4-0.2-0.6-0.2c-0.3,0-0.5,0.1-0.6,0.2c-0.2,0.2-0.2,0.4-0.2,0.7v1.9h-0.7v-3.4h0.7V49c0.1-0.1,0.3-0.3,0.4-0.3
			c0.2-0.1,0.4-0.1,0.6-0.1C72.8,48.6,73,48.7,73.2,48.8z"/>
		<path class="st0" d="M74.8,49.4c0.1-0.3,0.3-0.5,0.6-0.6c0.3-0.1,0.5-0.2,0.9-0.2c0.4,0,0.8,0.1,1,0.3s0.5,0.5,0.5,0.8h-0.8
			c-0.1-0.2-0.2-0.3-0.3-0.4c-0.1-0.1-0.3-0.1-0.5-0.1c-0.3,0-0.5,0.1-0.7,0.3c-0.2,0.2-0.3,0.5-0.3,0.9c0,0.4,0.1,0.7,0.3,0.9
			c0.2,0.2,0.4,0.3,0.7,0.3c0.4,0,0.7-0.2,0.8-0.5h0.8c-0.1,0.3-0.3,0.6-0.6,0.8s-0.6,0.3-1,0.3c-0.3,0-0.6-0.1-0.9-0.2
			c-0.3-0.1-0.4-0.4-0.6-0.6c-0.1-0.3-0.2-0.6-0.2-0.9C74.6,50,74.7,49.7,74.8,49.4z"/>
		<path class="st0" d="M78.6,48.1c-0.1-0.1-0.1-0.2-0.1-0.3s0-0.2,0.1-0.3s0.2-0.1,0.3-0.1c0.1,0,0.2,0,0.3,0.1
			c0.1,0.1,0.1,0.2,0.1,0.3s0,0.2-0.1,0.3c-0.1,0.1-0.2,0.1-0.3,0.1C78.8,48.2,78.7,48.2,78.6,48.1z M79.2,48.7v3.4h-0.7v-3.4H79.2z
			"/>
		<path class="st0" d="M80.2,49.4c0.1-0.3,0.3-0.5,0.6-0.6c0.2-0.1,0.5-0.2,0.8-0.2c0.3,0,0.5,0.1,0.7,0.2s0.4,0.2,0.5,0.4v-0.5h0.7
			v3.4h-0.7v-0.5c-0.1,0.2-0.3,0.3-0.5,0.4s-0.4,0.2-0.7,0.2c-0.3,0-0.6-0.1-0.8-0.2c-0.2-0.2-0.4-0.4-0.6-0.6
			c-0.1-0.3-0.2-0.6-0.2-0.9S80,49.7,80.2,49.4z M82.6,49.7c-0.1-0.2-0.2-0.3-0.4-0.4c-0.2-0.1-0.3-0.1-0.5-0.1s-0.4,0-0.5,0.1
			c-0.2,0.1-0.3,0.2-0.4,0.4c-0.1,0.2-0.1,0.4-0.1,0.6s0,0.4,0.1,0.6c0.1,0.2,0.2,0.3,0.4,0.4c0.2,0.1,0.3,0.1,0.5,0.1
			c0.2,0,0.4,0,0.5-0.1c0.2-0.1,0.3-0.2,0.4-0.4c0.1-0.2,0.1-0.4,0.1-0.6C82.7,50.1,82.7,49.9,82.6,49.7z"/>
		<path class="st0" d="M85.1,47.5v4.6h-0.7v-4.6H85.1z"/>
		<path class="st0" d="M88.3,52c-0.2-0.1-0.4-0.2-0.5-0.4s-0.2-0.4-0.2-0.7h0.8c0,0.2,0.1,0.3,0.2,0.5c0.1,0.1,0.3,0.2,0.5,0.2
			c0.2,0,0.4-0.1,0.6-0.2c0.1-0.1,0.2-0.3,0.2-0.5c0-0.1,0-0.3-0.1-0.4c-0.1-0.1-0.2-0.2-0.3-0.2c-0.1,0-0.3-0.1-0.5-0.2
			c-0.3-0.1-0.5-0.1-0.7-0.2c-0.2-0.1-0.3-0.2-0.4-0.4s-0.2-0.4-0.2-0.6c0-0.2,0.1-0.5,0.2-0.7c0.1-0.2,0.3-0.3,0.5-0.4
			c0.2-0.1,0.5-0.1,0.8-0.1c0.4,0,0.8,0.1,1,0.3c0.3,0.2,0.4,0.5,0.4,0.9h-0.8c0-0.2-0.1-0.3-0.2-0.4c-0.1-0.1-0.3-0.2-0.5-0.2
			c-0.2,0-0.4,0.1-0.5,0.2c-0.1,0.1-0.2,0.3-0.2,0.4c0,0.1,0,0.2,0.1,0.3c0.1,0.1,0.2,0.2,0.3,0.2c0.1,0,0.3,0.1,0.5,0.2
			c0.3,0.1,0.5,0.2,0.7,0.2s0.3,0.2,0.5,0.4c0.1,0.2,0.2,0.4,0.2,0.7c0,0.2-0.1,0.4-0.2,0.6c-0.1,0.2-0.3,0.4-0.5,0.5
			c-0.2,0.1-0.5,0.2-0.8,0.2C88.8,52.1,88.5,52.1,88.3,52z"/>
		<path class="st0" d="M94.4,48.7l-2.1,5h-0.7l0.7-1.7L91,48.7h0.8l1,2.6l1-2.6H94.4z"/>
		<path class="st0" d="M95.5,52c-0.2-0.1-0.4-0.2-0.5-0.4c-0.1-0.2-0.2-0.4-0.2-0.6h0.7c0,0.1,0.1,0.3,0.2,0.4
			c0.1,0.1,0.3,0.1,0.5,0.1c0.2,0,0.4,0,0.5-0.1c0.1-0.1,0.2-0.2,0.2-0.3c0-0.1-0.1-0.2-0.2-0.3c-0.1-0.1-0.3-0.1-0.6-0.2
			c-0.3-0.1-0.5-0.1-0.6-0.2c-0.2-0.1-0.3-0.2-0.4-0.3c-0.1-0.1-0.2-0.3-0.2-0.5c0-0.2,0.1-0.3,0.2-0.5c0.1-0.2,0.3-0.3,0.5-0.4
			c0.2-0.1,0.4-0.1,0.7-0.1c0.4,0,0.7,0.1,0.9,0.3c0.2,0.2,0.4,0.5,0.4,0.8h-0.7c0-0.2-0.1-0.3-0.2-0.4c-0.1-0.1-0.3-0.1-0.5-0.1
			c-0.2,0-0.3,0-0.4,0.1c-0.1,0.1-0.1,0.2-0.1,0.3c0,0.1,0,0.2,0.1,0.2c0.1,0.1,0.1,0.1,0.2,0.1s0.2,0.1,0.4,0.1
			c0.2,0.1,0.5,0.1,0.6,0.2c0.2,0.1,0.3,0.2,0.4,0.3c0.1,0.1,0.2,0.3,0.2,0.5c0,0.2-0.1,0.4-0.2,0.5c-0.1,0.2-0.3,0.3-0.5,0.4
			c-0.2,0.1-0.4,0.1-0.7,0.1C95.9,52.1,95.7,52.1,95.5,52z"/>
		<path class="st0" d="M99.1,49.2v1.9c0,0.1,0,0.2,0.1,0.3c0.1,0.1,0.2,0.1,0.3,0.1h0.4v0.6h-0.6c-0.3,0-0.6-0.1-0.7-0.2
			c-0.2-0.1-0.3-0.4-0.3-0.7v-1.9H98v-0.6h0.4v-0.8h0.7v0.8h0.8v0.6H99.1z"/>
		<path class="st0" d="M103.7,50.6h-2.6c0,0.3,0.1,0.5,0.3,0.7c0.2,0.2,0.4,0.2,0.7,0.2c0.4,0,0.6-0.2,0.8-0.5h0.8
			c-0.1,0.3-0.3,0.6-0.6,0.8c-0.3,0.2-0.6,0.3-1,0.3c-0.3,0-0.6-0.1-0.9-0.2c-0.3-0.1-0.5-0.4-0.6-0.6s-0.2-0.6-0.2-0.9
			c0-0.4,0.1-0.7,0.2-0.9c0.1-0.3,0.3-0.5,0.6-0.6c0.3-0.1,0.6-0.2,0.9-0.2c0.3,0,0.6,0.1,0.9,0.2s0.4,0.3,0.6,0.6s0.2,0.5,0.2,0.9
			C103.7,50.4,103.7,50.5,103.7,50.6z M103,50.1c0-0.3-0.1-0.5-0.3-0.6c-0.2-0.2-0.4-0.2-0.7-0.2c-0.2,0-0.5,0.1-0.6,0.2
			c-0.2,0.2-0.3,0.4-0.3,0.6H103z"/>
		<path class="st0" d="M109.3,48.8c0.2,0.1,0.4,0.3,0.5,0.5c0.1,0.2,0.2,0.5,0.2,0.8v2h-0.7v-1.9c0-0.3-0.1-0.5-0.2-0.7
			c-0.2-0.2-0.4-0.2-0.6-0.2c-0.3,0-0.5,0.1-0.6,0.2c-0.2,0.2-0.2,0.4-0.2,0.7v1.9h-0.7v-1.9c0-0.3-0.1-0.5-0.2-0.7
			c-0.2-0.2-0.4-0.2-0.6-0.2c-0.3,0-0.5,0.1-0.6,0.2c-0.2,0.2-0.2,0.4-0.2,0.7v1.9h-0.7v-3.4h0.7V49c0.1-0.1,0.3-0.3,0.4-0.3
			c0.2-0.1,0.4-0.1,0.6-0.1c0.3,0,0.5,0.1,0.7,0.2s0.4,0.3,0.5,0.5c0.1-0.2,0.3-0.4,0.5-0.5c0.2-0.1,0.5-0.2,0.7-0.2
			C108.8,48.6,109.1,48.7,109.3,48.8z"/>
		<path class="st0" d="M111.4,52c-0.2-0.1-0.4-0.2-0.5-0.4c-0.1-0.2-0.2-0.4-0.2-0.6h0.7c0,0.1,0.1,0.3,0.2,0.4
			c0.1,0.1,0.3,0.1,0.5,0.1c0.2,0,0.4,0,0.5-0.1c0.1-0.1,0.2-0.2,0.2-0.3c0-0.1-0.1-0.2-0.2-0.3c-0.1-0.1-0.3-0.1-0.6-0.2
			c-0.3-0.1-0.5-0.1-0.6-0.2c-0.2-0.1-0.3-0.2-0.4-0.3c-0.1-0.1-0.2-0.3-0.2-0.5c0-0.2,0.1-0.3,0.2-0.5c0.1-0.2,0.3-0.3,0.5-0.4
			c0.2-0.1,0.4-0.1,0.7-0.1c0.4,0,0.7,0.1,0.9,0.3c0.2,0.2,0.4,0.5,0.4,0.8h-0.7c0-0.2-0.1-0.3-0.2-0.4s-0.3-0.1-0.5-0.1
			c-0.2,0-0.3,0-0.4,0.1c-0.1,0.1-0.1,0.2-0.1,0.3c0,0.1,0,0.2,0.1,0.2c0.1,0.1,0.1,0.1,0.2,0.1c0.1,0,0.2,0.1,0.4,0.1
			c0.2,0.1,0.5,0.1,0.6,0.2c0.2,0.1,0.3,0.2,0.4,0.3c0.1,0.1,0.2,0.3,0.2,0.5c0,0.2-0.1,0.4-0.2,0.5c-0.1,0.2-0.3,0.3-0.5,0.4
			s-0.4,0.1-0.7,0.1C111.8,52.1,111.6,52.1,111.4,52z"/>
		<path class="st0" d="M115.8,49.4c0.1-0.3,0.3-0.5,0.6-0.6c0.2-0.1,0.5-0.2,0.8-0.2c0.3,0,0.5,0.1,0.7,0.2s0.4,0.2,0.5,0.4v-0.5
			h0.7v3.4h-0.7v-0.5c-0.1,0.2-0.3,0.3-0.5,0.4c-0.2,0.1-0.4,0.2-0.7,0.2c-0.3,0-0.6-0.1-0.8-0.2c-0.2-0.2-0.4-0.4-0.6-0.6
			s-0.2-0.6-0.2-0.9S115.6,49.7,115.8,49.4z M118.2,49.7c-0.1-0.2-0.2-0.3-0.4-0.4c-0.2-0.1-0.3-0.1-0.5-0.1s-0.4,0-0.5,0.1
			c-0.2,0.1-0.3,0.2-0.4,0.4c-0.1,0.2-0.1,0.4-0.1,0.6s0,0.4,0.1,0.6c0.1,0.2,0.2,0.3,0.4,0.4s0.3,0.1,0.5,0.1c0.2,0,0.4,0,0.5-0.1
			c0.2-0.1,0.3-0.2,0.4-0.4c0.1-0.2,0.1-0.4,0.1-0.6C118.3,50.1,118.3,49.9,118.2,49.7z"/>
		<path class="st0" d="M122.4,48.8c0.2,0.1,0.4,0.3,0.5,0.5c0.1,0.2,0.2,0.5,0.2,0.8v2h-0.7v-1.9c0-0.3-0.1-0.5-0.2-0.7
			c-0.2-0.2-0.4-0.2-0.6-0.2c-0.3,0-0.5,0.1-0.6,0.2c-0.2,0.2-0.2,0.4-0.2,0.7v1.9H120v-3.4h0.7V49c0.1-0.1,0.3-0.3,0.4-0.3
			c0.2-0.1,0.4-0.1,0.6-0.1C122,48.6,122.2,48.7,122.4,48.8z"/>
		<path class="st0" d="M124,49.4c0.1-0.3,0.3-0.5,0.6-0.6c0.2-0.1,0.5-0.2,0.8-0.2c0.2,0,0.4,0,0.7,0.1c0.2,0.1,0.4,0.2,0.5,0.4
			v-1.6h0.7v4.6h-0.7v-0.5c-0.1,0.2-0.3,0.3-0.5,0.4s-0.4,0.2-0.7,0.2c-0.3,0-0.6-0.1-0.8-0.2c-0.2-0.2-0.4-0.4-0.6-0.6
			s-0.2-0.6-0.2-0.9S123.8,49.7,124,49.4z M126.4,49.7c-0.1-0.2-0.2-0.3-0.4-0.4c-0.2-0.1-0.3-0.1-0.5-0.1s-0.4,0-0.5,0.1
			c-0.2,0.1-0.3,0.2-0.4,0.4c-0.1,0.2-0.1,0.4-0.1,0.6s0,0.4,0.1,0.6c0.1,0.2,0.2,0.3,0.4,0.4s0.3,0.1,0.5,0.1c0.2,0,0.4,0,0.5-0.1
			c0.2-0.1,0.3-0.2,0.4-0.4c0.1-0.2,0.1-0.4,0.1-0.6C126.6,50.1,126.5,49.9,126.4,49.7z"/>
		<path class="st0" d="M130.4,52c-0.2-0.1-0.4-0.2-0.5-0.4s-0.2-0.4-0.2-0.7h0.8c0,0.2,0.1,0.3,0.2,0.5c0.1,0.1,0.3,0.2,0.5,0.2
			c0.2,0,0.4-0.1,0.6-0.2c0.1-0.1,0.2-0.3,0.2-0.5c0-0.1,0-0.3-0.1-0.4c-0.1-0.1-0.2-0.2-0.3-0.2c-0.1,0-0.3-0.1-0.5-0.2
			c-0.3-0.1-0.5-0.1-0.7-0.2s-0.3-0.2-0.4-0.4s-0.2-0.4-0.2-0.6c0-0.2,0.1-0.5,0.2-0.7c0.1-0.2,0.3-0.3,0.5-0.4
			c0.2-0.1,0.5-0.1,0.8-0.1c0.4,0,0.8,0.1,1,0.3s0.4,0.5,0.4,0.9h-0.8c0-0.2-0.1-0.3-0.2-0.4c-0.1-0.1-0.3-0.2-0.5-0.2
			c-0.2,0-0.4,0.1-0.5,0.2c-0.1,0.1-0.2,0.3-0.2,0.4c0,0.1,0,0.2,0.1,0.3c0.1,0.1,0.2,0.2,0.3,0.2s0.3,0.1,0.5,0.2
			c0.3,0.1,0.5,0.2,0.7,0.2s0.3,0.2,0.5,0.4c0.1,0.2,0.2,0.4,0.2,0.7c0,0.2-0.1,0.4-0.2,0.6c-0.1,0.2-0.3,0.4-0.5,0.5
			c-0.2,0.1-0.5,0.2-0.8,0.2C130.9,52.1,130.7,52.1,130.4,52z"/>
		<path class="st0" d="M136.7,50.6H134c0,0.3,0.1,0.5,0.3,0.7c0.2,0.2,0.4,0.2,0.7,0.2c0.4,0,0.6-0.2,0.8-0.5h0.8
			c-0.1,0.3-0.3,0.6-0.6,0.8c-0.3,0.2-0.6,0.3-1,0.3c-0.3,0-0.6-0.1-0.9-0.2s-0.5-0.4-0.6-0.6s-0.2-0.6-0.2-0.9
			c0-0.4,0.1-0.7,0.2-0.9s0.3-0.5,0.6-0.6c0.3-0.1,0.6-0.2,0.9-0.2c0.3,0,0.6,0.1,0.9,0.2s0.4,0.3,0.6,0.6s0.2,0.5,0.2,0.9
			C136.7,50.4,136.7,50.5,136.7,50.6z M135.9,50.1c0-0.3-0.1-0.5-0.3-0.6c-0.2-0.2-0.4-0.2-0.7-0.2c-0.2,0-0.5,0.1-0.6,0.2
			c-0.2,0.2-0.3,0.4-0.3,0.6H135.9z"/>
		<path class="st0" d="M138.5,48.7c0.2-0.1,0.4-0.1,0.6-0.1v0.7h-0.2c-0.3,0-0.5,0.1-0.6,0.2s-0.2,0.4-0.2,0.7v1.8h-0.7v-3.4h0.7
			v0.5C138.2,49,138.3,48.8,138.5,48.7z"/>
		<path class="st0" d="M141.1,51.4l1-2.8h0.8l-1.3,3.4h-0.8l-1.3-3.4h0.8L141.1,51.4z"/>
		<path class="st0" d="M143.4,48.1c-0.1-0.1-0.1-0.2-0.1-0.3s0-0.2,0.1-0.3s0.2-0.1,0.3-0.1c0.1,0,0.2,0,0.3,0.1s0.1,0.2,0.1,0.3
			s0,0.2-0.1,0.3s-0.2,0.1-0.3,0.1C143.6,48.2,143.5,48.2,143.4,48.1z M144,48.7v3.4h-0.7v-3.4H144z"/>
		<path class="st0" d="M144.9,49.4c0.1-0.3,0.3-0.5,0.6-0.6s0.5-0.2,0.9-0.2c0.4,0,0.8,0.1,1,0.3c0.3,0.2,0.5,0.5,0.5,0.8h-0.8
			c-0.1-0.2-0.2-0.3-0.3-0.4c-0.1-0.1-0.3-0.1-0.5-0.1c-0.3,0-0.5,0.1-0.7,0.3c-0.2,0.2-0.3,0.5-0.3,0.9c0,0.4,0.1,0.7,0.3,0.9
			c0.2,0.2,0.4,0.3,0.7,0.3c0.4,0,0.7-0.2,0.8-0.5h0.8c-0.1,0.3-0.3,0.6-0.6,0.8s-0.6,0.3-1,0.3c-0.3,0-0.6-0.1-0.9-0.2
			s-0.4-0.4-0.6-0.6s-0.2-0.6-0.2-0.9C144.7,50,144.8,49.7,144.9,49.4z"/>
		<path class="st0" d="M151.8,50.6h-2.6c0,0.3,0.1,0.5,0.3,0.7c0.2,0.2,0.4,0.2,0.7,0.2c0.4,0,0.6-0.2,0.8-0.5h0.8
			c-0.1,0.3-0.3,0.6-0.6,0.8c-0.3,0.2-0.6,0.3-1,0.3c-0.3,0-0.6-0.1-0.9-0.2s-0.5-0.4-0.6-0.6s-0.2-0.6-0.2-0.9
			c0-0.4,0.1-0.7,0.2-0.9s0.3-0.5,0.6-0.6c0.3-0.1,0.6-0.2,0.9-0.2c0.3,0,0.6,0.1,0.9,0.2s0.4,0.3,0.6,0.6s0.2,0.5,0.2,0.9
			C151.8,50.4,151.8,50.5,151.8,50.6z M151.1,50.1c0-0.3-0.1-0.5-0.3-0.6c-0.2-0.2-0.4-0.2-0.7-0.2c-0.2,0-0.5,0.1-0.6,0.2
			c-0.2,0.2-0.3,0.4-0.3,0.6H151.1z"/>
		<path class="st0" d="M153,52c-0.2-0.1-0.4-0.2-0.5-0.4c-0.1-0.2-0.2-0.4-0.2-0.6h0.7c0,0.1,0.1,0.3,0.2,0.4
			c0.1,0.1,0.3,0.1,0.5,0.1c0.2,0,0.4,0,0.5-0.1c0.1-0.1,0.2-0.2,0.2-0.3c0-0.1-0.1-0.2-0.2-0.3c-0.1-0.1-0.3-0.1-0.6-0.2
			c-0.3-0.1-0.5-0.1-0.6-0.2c-0.2-0.1-0.3-0.2-0.4-0.3c-0.1-0.1-0.2-0.3-0.2-0.5c0-0.2,0.1-0.3,0.2-0.5c0.1-0.2,0.3-0.3,0.5-0.4
			c0.2-0.1,0.4-0.1,0.7-0.1c0.4,0,0.7,0.1,0.9,0.3c0.2,0.2,0.4,0.5,0.4,0.8h-0.7c0-0.2-0.1-0.3-0.2-0.4s-0.3-0.1-0.5-0.1
			c-0.2,0-0.3,0-0.4,0.1c-0.1,0.1-0.1,0.2-0.1,0.3c0,0.1,0,0.2,0.1,0.2c0.1,0.1,0.1,0.1,0.2,0.1c0.1,0,0.2,0.1,0.4,0.1
			c0.2,0.1,0.5,0.1,0.6,0.2c0.2,0.1,0.3,0.2,0.4,0.3c0.1,0.1,0.2,0.3,0.2,0.5c0,0.2-0.1,0.4-0.2,0.5c-0.1,0.2-0.3,0.3-0.5,0.4
			s-0.4,0.1-0.7,0.1C153.5,52.1,153.2,52.1,153,52z"/>
	</g>
</g>
</svg>
