<svg xmlns="http://www.w3.org/2000/svg" viewBox="0 4.050000190734863 463.8999938964844 47.45000076293945" data-asc="0.825" width="463.8999938964844" height="47.45000076293945"><defs/><g fill="#45a1e8"><g transform="translate(0, 0)"><path d="M50.55 47.70Q48.60 47.70 47.10 47Q44.95 45.95 42.85 44.08Q40.75 42.20 38.85 39.85Q36.95 37.50 35.45 34.90Q33.95 32.30 32.95 29.85Q30.20 31.45 28.40 31.60Q27 33.40 24.85 35.70Q22.70 38 20.07 40.15Q17.45 42.30 14.48 43.67Q11.50 45.05 8.45 45.05Q4.55 45.05 2.27 43.08Q0 41.10 0 36.85Q0 34.50 1.15 32.20Q2.30 29.90 4.25 28.05Q6.20 26.20 8.50 25.25Q11.35 24 14.45 24Q16.20 24 17.25 24.93Q18.30 25.85 18.30 27.30Q18.30 27.95 18.10 28.15Q18.05 28.20 17.95 28.20Q17.80 28.20 17.55 27.80Q16.75 26.25 15.95 25.75Q15.15 25.25 13.70 25.25Q11.50 25.25 9.43 26.32Q7.35 27.40 5.68 29.20Q4 31 3.00 33.23Q2 35.45 2 37.70Q2 43.10 8.10 43.80Q10.40 44 14.15 41.85Q19.75 38.65 26.10 30.85Q24.95 29.80 24.95 27.85Q24.95 25.70 26.40 23.95Q28 22.05 30.65 22.05Q31.40 22.05 32.05 22.20Q33.40 19.90 34.65 17.55Q35.90 15.20 37.05 12.80Q39.25 8.25 39.25 7.50Q39.25 7.40 39.20 7.40Q39.05 7.30 38 7.77Q36.95 8.25 35.55 8.92Q34.15 9.60 32.95 10.25Q31.75 10.90 31.30 11.20Q29.60 12.30 27.90 14Q25.70 16.20 25.70 17.40Q25.70 17.95 26.20 18.30Q27.25 19.05 29.30 19.05Q29.55 19.15 29.55 19.25Q29.55 19.50 27.95 19.75Q26.35 20 25.45 19.90Q24.20 19.60 24.20 18.45Q24.20 16.70 26.35 14.25Q28.50 11.80 31.05 10.40Q38.50 6.40 40.50 6.40Q41 6.40 41.35 6.60Q41.55 6.75 41.55 7.15Q41.55 10.20 33.15 24.60Q33.30 25.20 33.58 25.98Q33.85 26.75 34.25 27.75L49.15 16.40Q52.90 13.55 56 11.25Q59.10 8.95 61.93 7.35Q64.75 5.75 67.63 4.90Q70.50 4.05 73.85 4.05Q75.70 4.05 77.25 4.65Q78.20 5 78.20 6.05Q78.20 6.90 77.70 6.90Q77.45 6.90 77.20 6.60Q76.75 6.10 75.30 6.10Q74.50 6.10 73.20 6.30Q71.90 6.50 70.05 6.90Q67.20 7.55 64.03 8.95Q60.85 10.35 57.35 12.50Q52.95 15.25 45.35 21.05Q41.50 24 38.83 25.92Q36.15 27.85 34.70 28.80Q35.80 31.10 37.38 33.55Q38.95 36 40.80 38.27Q42.65 40.55 44.70 42.33Q46.75 44.10 48.75 45Q50.70 45.90 52.30 45.90Q54.70 45.90 54.70 44.05Q54.70 43.95 54.70 43.80Q54.70 43.65 54.65 43.55Q54.65 43.45 54.63 43.38Q54.60 43.30 54.60 43.25Q54.60 42.75 54.85 42.38Q55.10 42 55.40 42Q56.05 42 56.25 43.55Q56.30 43.65 56.30 43.80Q56.30 43.95 56.30 44.05Q56.30 45.25 55.45 46.08Q54.60 46.90 53.30 47.30Q52 47.70 50.55 47.70M27.70 28.80L28.05 28.30Q28.45 27.70 29.13 26.75Q29.80 25.80 30.65 24.50Q30.05 24.25 29.60 24.25Q28.55 24.25 27.85 25.15Q27.15 26.05 27.15 27.15Q27.15 28.10 27.70 28.80M29.90 29.65Q30.40 29.65 30.55 29.60Q31.20 29.50 32.55 28.80Q32.35 28.20 32.17 27.70Q32 27.20 31.90 26.80Q31.55 27.35 31.05 28.07Q30.55 28.80 29.90 29.65ZM49.05 41.50Q47.85 41.50 46.65 40.65Q45.45 39.80 45.30 38.65Q44.80 34.80 50.15 29.50Q55.45 24.20 59.70 24.20Q60.85 24.20 61.50 24.75Q61.85 25.10 62.03 25.70Q62.20 26.30 62.30 26.30Q62.50 26.30 62.65 26.23Q62.80 26.15 63 26.15Q63.60 26.15 64.05 26.60Q64.50 27.05 64.55 27.40Q64.60 27.50 61.35 32.35Q58.10 37.10 58.40 38.80Q58.65 39.95 59.50 39.95Q62.10 39.95 69 31.35Q69.15 31.15 69.30 31.15Q69.55 31.15 69.55 31.50Q69.55 31.90 69.10 32.50Q62.75 41.05 59.35 41.05Q58.90 41.05 58.50 40.90Q56.30 40.05 56.30 37.60Q56.30 36.75 56.50 35.90L53.40 38.90Q52 40.30 50.88 40.90Q49.75 41.50 49.05 41.50M48.60 40.40Q51.50 40.40 56.50 34.05L61.80 26.75Q61.40 26.05 60.50 26.05Q57.45 26.05 52.25 30.95Q46.85 35.95 47.40 39.20Q47.65 40.40 48.60 40.40ZM70.10 41.35Q68.65 41.35 67.40 40.63Q66.15 39.90 66.15 38.20Q66.15 35.85 67.83 32.60Q69.50 29.35 71.65 25.85Q77.50 16.35 79.95 16.35Q80.45 16.35 80.98 16.72Q81.50 17.10 81.55 17.55L78.05 22.25Q76.00 25 74.35 27.32Q72.70 29.65 71.50 31.50Q70.90 32.45 70.15 33.65Q69.40 34.85 68.83 36.13Q68.25 37.40 68.25 38.70Q68.25 39.30 68.60 39.77Q68.95 40.25 69.85 40.25Q71.45 40.25 74.05 38.52Q76.65 36.80 79.20 33.75Q79.45 33.45 79.75 33.20Q80.05 32.95 80.25 32.95Q80.50 32.95 80.50 33.25Q80.50 33.40 80.18 33.83Q79.85 34.25 79.65 34.50L78.45 35.85Q77.45 36.95 76.08 38.25Q74.70 39.55 73.18 40.45Q71.65 41.35 70.10 41.35ZM79.60 51.50Q78.00 51.50 76.80 50.15Q75.60 48.75 75.65 47.05Q76.25 47.80 77.25 48.80Q78.55 50.05 79.80 50.05Q82.65 50.05 85.95 45.50Q87.10 43.90 88.33 41.77Q89.55 39.65 90.65 37.05L92.55 32.45L85.20 38.20Q81.80 40.85 79.75 40.85Q78.65 40.85 78.00 40.05Q77.35 39.25 77.35 38.40Q77.35 36.25 81.05 31.35Q84.75 26.40 86.60 26.40Q88.15 26.40 88.15 27.55Q88.15 28 83.70 32.75Q79.30 37.45 79.30 39.10Q79.30 39.75 80.15 39.75Q81.75 39.75 87.10 35.60Q89.30 33.85 91.00 32.40Q92.70 30.95 93.85 29.80Q94.25 29.30 94.65 28.82Q95.05 28.35 95.40 27.85Q96.35 26.75 97.30 26.75Q98.65 26.75 98.65 27.85Q98.65 28.05 96.55 31.15Q95.45 32.85 94.80 33.77Q94.15 34.70 94.05 34.95Q92.50 37.95 89.30 43.70Q84.45 51.50 79.60 51.50ZM100.30 41.50Q99.10 41.50 97.90 40.65Q96.70 39.80 96.55 38.65Q96.05 34.80 101.40 29.50Q106.70 24.20 110.95 24.20Q112.10 24.20 112.75 24.75Q113.10 25.10 113.28 25.70Q113.45 26.30 113.55 26.30Q113.75 26.30 113.90 26.23Q114.05 26.15 114.25 26.15Q114.85 26.15 115.30 26.60Q115.75 27.05 115.80 27.40Q115.85 27.50 112.60 32.35Q109.35 37.10 109.65 38.80Q109.90 39.95 110.75 39.95Q113.35 39.95 120.25 31.35Q120.40 31.15 120.55 31.15Q120.80 31.15 120.80 31.50Q120.80 31.90 120.35 32.50Q114.00 41.05 110.60 41.05Q110.15 41.05 109.75 40.90Q107.55 40.05 107.55 37.60Q107.55 36.75 107.75 35.90L104.65 38.90Q103.25 40.30 102.13 40.90Q101.00 41.50 100.30 41.50M99.85 40.40Q102.75 40.40 107.75 34.05L113.05 26.75Q112.65 26.05 111.75 26.05Q108.70 26.05 103.50 30.95Q98.10 35.95 98.65 39.20Q98.90 40.40 99.85 40.40ZM130.30 41.35Q128.95 41.35 128.40 40.58Q127.85 39.80 127.85 38.65Q127.85 35.75 129.85 32.45L133.05 27.25Q129.65 29.75 126.30 33.50Q125.40 34.50 124.28 35.85Q123.15 37.20 121.80 38.95Q120.00 41.30 119.65 41.30Q118.95 41.30 118.50 40.67Q118.05 40.05 118.05 39.55Q118.05 39.15 118.30 38.08Q118.55 37 118.90 36.20Q119.25 35.35 119.63 34.52Q120.00 33.70 120.35 32.90L117.35 36.05Q117.25 36.15 116.75 36.65Q116.25 37.15 115.95 37.15Q115.70 37.15 115.70 36.80Q115.70 36.70 115.78 36.52Q115.85 36.35 116.10 36.10Q116.85 35.35 117.65 34.50Q118.45 33.65 119.30 32.55Q119.75 32 120.65 30.88Q121.55 29.75 122.63 28.45Q123.70 27.15 124.65 26.05Q124.90 25.70 125.20 25.57Q125.50 25.45 125.60 25.45Q126.95 25.45 126.95 26.50Q126.95 26.80 126.80 27.10Q122.30 33.30 121.40 36.55Q127.20 30.75 130.73 27.82Q134.25 24.90 135.75 24.90Q136.55 24.90 136.98 25.15Q137.40 25.40 137.40 26.10Q137.40 26.35 137.35 26.50Q137.20 26.85 135.30 29.30Q134.15 30.70 133.28 31.85Q132.40 33 131.85 33.85Q130.95 35.25 130.50 36.48Q130.05 37.70 130.05 38.55Q130.05 38.90 130.15 39.40Q130.25 39.90 130.75 39.90Q131.90 39.90 134.35 37.90Q135.50 36.90 136.50 35.88Q137.50 34.85 138.40 33.85Q138.60 33.65 139.05 33.08Q139.50 32.50 139.60 32.50Q139.80 32.50 139.80 32.90Q139.80 33.10 139.58 33.58Q139.35 34.05 139.10 34.30Q138.55 34.95 137.48 36.10Q136.40 37.25 135.08 38.45Q133.75 39.65 132.50 40.50Q131.25 41.35 130.30 41.35ZM199.25 47.70Q197.30 47.70 195.80 47Q193.65 45.95 191.55 44.08Q189.45 42.20 187.55 39.85Q185.65 37.50 184.15 34.90Q182.65 32.30 181.65 29.85Q178.90 31.45 177.10 31.60Q175.70 33.40 173.55 35.70Q171.40 38 168.78 40.15Q166.15 42.30 163.18 43.67Q160.20 45.05 157.15 45.05Q153.25 45.05 150.98 43.08Q148.70 41.10 148.70 36.85Q148.70 34.50 149.85 32.20Q151.00 29.90 152.95 28.05Q154.90 26.20 157.20 25.25Q160.05 24 163.15 24Q164.90 24 165.95 24.93Q167.00 25.85 167.00 27.30Q167.00 27.95 166.80 28.15Q166.75 28.20 166.65 28.20Q166.50 28.20 166.25 27.80Q165.45 26.25 164.65 25.75Q163.85 25.25 162.40 25.25Q160.20 25.25 158.13 26.32Q156.05 27.40 154.38 29.20Q152.70 31 151.70 33.23Q150.70 35.45 150.70 37.70Q150.70 43.10 156.80 43.80Q159.10 44 162.85 41.85Q168.45 38.65 174.80 30.85Q173.65 29.80 173.65 27.85Q173.65 25.70 175.10 23.95Q176.70 22.05 179.35 22.05Q180.10 22.05 180.75 22.20Q182.10 19.90 183.35 17.55Q184.60 15.20 185.75 12.80Q187.95 8.25 187.95 7.50Q187.95 7.40 187.90 7.40Q187.75 7.30 186.70 7.77Q185.65 8.25 184.25 8.92Q182.85 9.60 181.65 10.25Q180.45 10.90 180.00 11.20Q178.30 12.30 176.60 14Q174.40 16.20 174.40 17.40Q174.40 17.95 174.90 18.30Q175.95 19.05 178.00 19.05Q178.25 19.15 178.25 19.25Q178.25 19.50 176.65 19.75Q175.05 20 174.15 19.90Q172.90 19.60 172.90 18.45Q172.90 16.70 175.05 14.25Q177.20 11.80 179.75 10.40Q187.20 6.40 189.20 6.40Q189.70 6.40 190.05 6.60Q190.25 6.75 190.25 7.15Q190.25 10.20 181.85 24.60Q182.00 25.20 182.28 25.98Q182.55 26.75 182.95 27.75L197.85 16.40Q201.60 13.55 204.70 11.25Q207.80 8.95 210.63 7.35Q213.45 5.75 216.33 4.90Q219.20 4.05 222.55 4.05Q224.40 4.05 225.95 4.65Q226.90 5 226.90 6.05Q226.90 6.90 226.40 6.90Q226.15 6.90 225.90 6.60Q225.45 6.10 224.00 6.10Q223.20 6.10 221.90 6.30Q220.60 6.50 218.75 6.90Q215.90 7.55 212.73 8.95Q209.55 10.35 206.05 12.50Q201.65 15.25 194.05 21.05Q190.20 24 187.53 25.92Q184.85 27.85 183.40 28.80Q184.50 31.10 186.08 33.55Q187.65 36 189.50 38.27Q191.35 40.55 193.40 42.33Q195.45 44.10 197.45 45Q199.40 45.90 201.00 45.90Q203.40 45.90 203.40 44.05Q203.40 43.95 203.40 43.80Q203.40 43.65 203.35 43.55Q203.35 43.45 203.33 43.38Q203.30 43.30 203.30 43.25Q203.30 42.75 203.55 42.38Q203.80 42 204.10 42Q204.75 42 204.95 43.55Q205.00 43.65 205.00 43.80Q205.00 43.95 205.00 44.05Q205.00 45.25 204.15 46.08Q203.30 46.90 202.00 47.30Q200.70 47.70 199.25 47.70M176.40 28.80L176.75 28.30Q177.15 27.70 177.83 26.75Q178.50 25.80 179.35 24.50Q178.75 24.25 178.30 24.25Q177.25 24.25 176.55 25.15Q175.85 26.05 175.85 27.15Q175.85 28.10 176.40 28.80M178.60 29.65Q179.10 29.65 179.25 29.60Q179.90 29.50 181.25 28.80Q181.05 28.20 180.88 27.70Q180.70 27.20 180.60 26.80Q180.25 27.35 179.75 28.07Q179.25 28.80 178.60 29.65ZM196.75 41.80Q194.50 41.80 194.50 38.95Q194.50 37.85 195.18 36.33Q195.85 34.80 197.10 33.10Q197.10 33.10 196.20 33.95Q195.30 34.80 194.15 36.10Q193.95 36.30 193.65 36.30Q193.45 36.30 193.45 36.05Q193.45 35.80 193.90 35.20L200.80 27.10Q202.10 25.60 203.65 25.60Q204.80 25.60 204.80 26.50Q204.80 26.85 204.50 27.15Q203.55 28.05 202.18 29.70Q200.80 31.35 199.50 33.25Q198.20 35.15 197.33 36.88Q196.45 38.60 196.45 39.65Q196.45 40.55 197.05 40.55Q197.40 40.55 198.15 40.27Q198.90 40 200.15 39.13Q201.40 38.25 203.15 36.40Q203.45 36.10 204.75 34.60Q206.05 33.10 208.25 30.30Q212.15 25.45 213.35 25.45Q215.00 25.45 215.15 26.80Q215.25 27.25 213.05 29.75Q210.20 33.20 209.15 34.70Q207.20 37.55 207.20 39.15Q207.20 40.25 207.95 40.25Q208.70 40.25 209.88 39.52Q211.05 38.80 212.35 37.67Q213.65 36.55 214.88 35.33Q216.10 34.10 217.00 33.05Q217.30 32.70 217.60 32.70Q217.90 32.70 217.90 33Q217.90 33.10 217.85 33.30Q217.80 33.50 217.55 33.75Q216.75 34.65 215.50 35.98Q214.25 37.30 212.80 38.60Q211.35 39.90 210.00 40.75Q208.65 41.60 207.70 41.60Q206.55 41.60 205.70 40.98Q204.85 40.35 204.85 39.25Q204.85 38.15 205.20 37.02Q205.55 35.90 205.75 35.10Q203.40 37.85 201.63 39.30Q199.85 40.75 198.65 41.27Q197.45 41.80 196.75 41.80ZM227.45 41.35Q226.25 41.35 226.25 40Q226.80 37.20 228.50 33.70Q229.30 32 230.13 30.35Q230.95 28.70 231.75 27Q229.90 28.25 228.05 29.77Q226.20 31.30 224.45 33.20Q222.40 35.40 219.70 38.85Q217.75 41.30 217.45 41.30Q216.75 41.30 216.30 40.65Q215.85 40 215.85 39.55Q215.85 38.90 217.00 36.20Q217.35 35.35 217.73 34.52Q218.10 33.70 218.45 32.90L215.45 36.05Q215.35 36.15 214.85 36.65Q214.35 37.15 214.05 37.15Q213.80 37.15 213.80 36.80Q213.80 36.70 213.88 36.52Q213.95 36.35 214.20 36.10Q214.95 35.35 215.75 34.50Q216.55 33.65 217.40 32.55Q218.05 31.70 219.28 30.02Q220.50 28.35 222.30 25.80Q222.85 25.05 223.85 25.05Q224.85 25.05 224.85 26Q224.85 26.35 222.30 30.65Q221.00 32.95 220.23 34.40Q219.45 35.85 219.25 36.55Q220.35 35.35 221.88 33.85Q223.40 32.35 225.40 30.50Q231.55 24.80 233.50 24.80Q234.05 24.80 234.58 25.15Q235.10 25.50 235.10 26.05Q235.10 26.30 233.15 29.70Q231.25 33.15 231.05 33.80Q236.60 29.15 236.60 29.10Q241.30 25.45 243.35 25.45Q243.95 25.45 244.48 25.82Q245.00 26.20 245.00 26.70Q245.00 26.80 241.80 30.90Q238.50 35.05 238.10 37.70Q237.90 39.50 239.95 39.50Q241.20 39.50 243.45 37.90Q245.70 36.30 248.15 33.50Q248.45 33.15 248.80 32.83Q249.15 32.50 249.40 32.50Q249.70 32.50 249.70 32.75Q249.70 33.10 249.25 33.55Q247.95 35.10 246.18 36.75Q244.40 38.40 242.65 39.52Q240.90 40.65 239.55 40.65Q236.15 40.65 236.15 37.50Q236.15 36.40 236.75 34.92Q237.35 33.45 237.95 32.25Q239.40 29.45 241.10 27.30Q239.50 28.10 237.78 29.40Q236.05 30.70 234.20 32.45Q229.90 36.65 228.30 40.95Q228.05 41.35 227.45 41.35ZM250.55 41.50Q249.35 41.50 248.15 40.65Q246.95 39.80 246.80 38.65Q246.30 34.80 251.65 29.50Q256.95 24.20 261.20 24.20Q262.35 24.20 263.00 24.75Q263.35 25.10 263.53 25.70Q263.70 26.30 263.80 26.30Q264.00 26.30 264.15 26.23Q264.30 26.15 264.50 26.15Q265.10 26.15 265.55 26.60Q266.00 27.05 266.05 27.40Q266.10 27.50 262.85 32.35Q259.60 37.10 259.90 38.80Q260.15 39.95 261.00 39.95Q263.60 39.95 270.50 31.35Q270.65 31.15 270.80 31.15Q271.05 31.15 271.05 31.50Q271.05 31.90 270.60 32.50Q264.25 41.05 260.85 41.05Q260.40 41.05 260.00 40.90Q257.80 40.05 257.80 37.60Q257.80 36.75 258.00 35.90L254.90 38.90Q253.50 40.30 252.38 40.90Q251.25 41.50 250.55 41.50M250.10 40.40Q253.00 40.40 258.00 34.05L263.30 26.75Q262.90 26.05 262.00 26.05Q258.95 26.05 253.75 30.95Q248.35 35.95 248.90 39.20Q249.15 40.40 250.10 40.40ZM278.00 41.50Q275.85 41.50 275.05 40.38Q274.25 39.25 274.25 37.35Q274.25 35.25 275.55 32.35Q276.05 31.20 276.60 30.27Q277.15 29.35 277.75 28.55Q277.55 28.60 277.40 28.60Q277.25 28.60 277.10 28.60Q275.90 28.60 275.10 26.90L271.40 31.70Q268.45 35.55 267.80 35.55Q267.55 35.55 267.55 35.35Q267.55 35.10 267.80 34.70Q267.95 34.40 268.40 33.90Q270.30 31.70 271.90 29.55Q273.50 27.40 274.55 25.35Q275.70 21 277.45 21Q278.60 21 278.60 22.05Q278.60 23 277.35 24.55Q276.15 26.10 276.15 26.15Q276.15 27.20 277.70 27.20Q278.60 27.20 279.70 26.55L281.00 25.75Q281.10 25.70 281.30 25.70Q281.90 25.70 282.35 26.20Q282.80 26.70 282.65 27.10L279.20 31.45Q276.00 35.55 276.00 38.05Q276.00 40.30 278.20 40.30Q279.70 40.30 281.43 39.40Q283.15 38.50 284.78 37.17Q286.40 35.85 287.50 34.60L288.70 33.20Q288.80 33.10 288.95 32.95Q289.10 32.80 289.20 32.80Q289.55 32.80 289.55 33.15Q289.55 33.25 289.45 33.50Q289.35 33.75 289.10 34.05L287.50 35.85Q286.35 37.15 284.68 38.48Q283.00 39.80 281.23 40.65Q279.45 41.50 278.00 41.50ZM305.05 47.05Q297.35 46.40 297.35 39.15Q297.35 34.85 300.05 30.05Q301.65 27.15 304.08 24.40Q306.50 21.65 309.38 19.42Q312.25 17.20 315.28 15.90Q318.30 14.60 321.10 14.60Q326.05 14.60 326.05 18.25Q326.05 20.70 324.55 23.70Q323.05 26.70 321.50 27.50Q321.35 27.55 321.15 27.55Q321.00 27.55 321.00 27.45L322.65 24.75Q324.35 21.95 324.35 19.85Q324.35 18.35 323.55 17Q322.75 15.65 320.70 15.65Q318.20 15.65 315.58 17.05Q312.95 18.45 310.50 20.75Q308.05 23.05 306.05 25.82Q304.05 28.60 302.85 31.30Q300.30 37.05 300.30 40.60Q300.30 45.95 305.75 45.95Q310.95 45.95 319.85 39.25Q321.90 37.70 325.13 34.90Q328.35 32.10 332.70 28.10Q332.10 28.15 331.20 28.23Q330.30 28.30 329.10 28.50Q328.60 28.60 328.15 28.67Q327.70 28.75 327.30 28.75Q326.30 28.65 326.45 28.25Q326.65 26.40 328.35 26.40Q329.90 26.60 331.28 26.70Q332.65 26.80 333.90 26.80Q335.85 25 339.08 21.77Q342.30 18.55 346.75 13.85Q352.50 7.80 353.75 7.80Q354.30 7.80 354.30 8.80Q354.30 9.20 354.20 9.80Q354.10 10.40 353.90 11.20Q353.40 13.10 352.85 13.50Q351.30 14.60 350.28 16.32Q349.25 18.05 348.20 20.15Q347.15 22.30 346.28 23.97Q345.40 25.65 344.70 26.95L349.55 26.85Q351.35 26.85 351.35 27.10Q351.35 27.15 351.25 27.25Q350.40 27.80 344.05 28.25Q339.40 37.30 339.40 40.65Q339.40 42.95 340.85 42.95Q341.40 42.95 342.25 42.25Q343.05 41.60 343.25 41.60Q343.25 41.50 343.30 41.55Q343.35 41.60 343.25 41.60Q343.00 42.50 341.78 43.23Q340.55 43.95 339.20 43.95Q337.95 43.95 337.55 43.15Q337.15 42.35 337.15 40.95Q337.15 35.90 341.00 28.10L335.00 28.25Q328.30 34.80 321.55 39.75Q310.80 47.55 305.05 47.05M341.45 26.80Q342.05 25.65 343.85 22.63Q345.65 19.60 348.70 14.75L335.90 26.75L341.45 26.80ZM352.20 41.35Q350.75 41.35 349.50 40.63Q348.25 39.90 348.25 38.20Q348.25 35.85 349.93 32.60Q351.60 29.35 353.75 25.85Q359.60 16.35 362.05 16.35Q362.55 16.35 363.08 16.72Q363.60 17.10 363.65 17.55L360.15 22.25Q358.10 25 356.45 27.32Q354.80 29.65 353.60 31.50Q353.00 32.45 352.25 33.65Q351.50 34.85 350.93 36.13Q350.35 37.40 350.35 38.70Q350.35 39.30 350.70 39.77Q351.05 40.25 351.95 40.25Q353.55 40.25 356.15 38.52Q358.75 36.80 361.30 33.75Q361.55 33.45 361.85 33.20Q362.15 32.95 362.35 32.95Q362.60 32.95 362.60 33.25Q362.60 33.40 362.28 33.83Q361.95 34.25 361.75 34.50L360.55 35.85Q359.55 36.95 358.18 38.25Q356.80 39.55 355.28 40.45Q353.75 41.35 352.20 41.35ZM363.90 41.50Q362.70 41.50 361.50 40.65Q360.30 39.80 360.15 38.65Q359.65 34.80 365 29.50Q370.30 24.20 374.55 24.20Q375.70 24.20 376.35 24.75Q376.70 25.10 376.88 25.70Q377.05 26.30 377.15 26.30Q377.35 26.30 377.50 26.23Q377.65 26.15 377.85 26.15Q378.45 26.15 378.90 26.60Q379.35 27.05 379.40 27.40Q379.45 27.50 376.20 32.35Q372.95 37.10 373.25 38.80Q373.50 39.95 374.35 39.95Q376.95 39.95 383.85 31.35Q384 31.15 384.15 31.15Q384.40 31.15 384.40 31.50Q384.40 31.90 383.95 32.50Q377.60 41.05 374.20 41.05Q373.75 41.05 373.35 40.90Q371.15 40.05 371.15 37.60Q371.15 36.75 371.35 35.90L368.25 38.90Q366.85 40.30 365.73 40.90Q364.60 41.50 363.90 41.50M363.45 40.40Q366.35 40.40 371.35 34.05L376.65 26.75Q376.25 26.05 375.35 26.05Q372.30 26.05 367.10 30.95Q361.70 35.95 362.25 39.20Q362.50 40.40 363.45 40.40ZM391.55 23.95Q390.70 23.95 390.08 23.43Q389.45 22.90 389.45 22.20Q389.45 20.75 391.35 20.75Q392.05 20.75 392.75 21.25Q393.45 21.75 393.45 22.45Q393.45 23.05 392.80 23.50Q392.15 23.95 391.55 23.95M371.95 51.50Q370.45 51.50 369.20 50.55Q367.90 49.55 367.90 48.55Q367.90 47.60 368.35 47.60Q368.40 47.60 369.35 48.85Q370.35 50.15 371.65 50.15Q375.65 50.15 380.75 41.10Q382.30 38.30 383.38 36.02Q384.45 33.75 385.05 31.95Q384.60 32.45 383.75 33.27Q382.90 34.10 382.13 34.73Q381.35 35.35 381.00 35.35Q380.85 35.35 380.85 35.20Q380.85 34.75 381.50 34.15Q382.45 33.35 383.75 31.50Q385.20 29.45 385.40 29.25L387.05 27.50Q388.05 26.55 389.05 26.55Q390.40 26.55 390.40 27.65Q390.40 27.85 388.65 30.95L386.45 34.75Q382.60 42.10 380.50 45Q375.95 51.50 371.95 51.50ZM394.55 41.50Q393.35 41.50 392.15 40.65Q390.95 39.80 390.80 38.65Q390.30 34.80 395.65 29.50Q400.95 24.20 405.20 24.20Q406.35 24.20 407.00 24.75Q407.35 25.10 407.53 25.70Q407.70 26.30 407.80 26.30Q408.00 26.30 408.15 26.23Q408.30 26.15 408.50 26.15Q409.10 26.15 409.55 26.60Q410.00 27.05 410.05 27.40Q410.10 27.50 406.85 32.35Q403.60 37.10 403.90 38.80Q404.15 39.95 405.00 39.95Q407.60 39.95 414.50 31.35Q414.65 31.15 414.80 31.15Q415.05 31.15 415.05 31.50Q415.05 31.90 414.60 32.50Q408.25 41.05 404.85 41.05Q404.40 41.05 404.00 40.90Q401.80 40.05 401.80 37.60Q401.80 36.75 402.00 35.90L398.90 38.90Q397.50 40.30 396.38 40.90Q395.25 41.50 394.55 41.50M394.10 40.40Q397.00 40.40 402.00 34.05L407.30 26.75Q406.90 26.05 406.00 26.05Q402.95 26.05 397.75 30.95Q392.35 35.95 392.90 39.20Q393.15 40.40 394.10 40.40ZM424.55 41.35Q423.20 41.35 422.65 40.58Q422.10 39.80 422.10 38.65Q422.10 35.75 424.10 32.45L427.30 27.25Q423.90 29.75 420.55 33.50Q419.65 34.50 418.53 35.85Q417.40 37.20 416.05 38.95Q414.25 41.30 413.90 41.30Q413.20 41.30 412.75 40.67Q412.30 40.05 412.30 39.55Q412.30 39.15 412.55 38.08Q412.80 37 413.15 36.20Q413.50 35.35 413.88 34.52Q414.25 33.70 414.60 32.90L411.60 36.05Q411.50 36.15 411.00 36.65Q410.50 37.15 410.20 37.15Q409.95 37.15 409.95 36.80Q409.95 36.70 410.03 36.52Q410.10 36.35 410.35 36.10Q411.10 35.35 411.90 34.50Q412.70 33.65 413.55 32.55Q414.00 32 414.90 30.88Q415.80 29.75 416.88 28.45Q417.95 27.15 418.90 26.05Q419.15 25.70 419.45 25.57Q419.75 25.45 419.85 25.45Q421.20 25.45 421.20 26.50Q421.20 26.80 421.05 27.10Q416.55 33.30 415.65 36.55Q421.45 30.75 424.98 27.82Q428.50 24.90 430.00 24.90Q430.80 24.90 431.23 25.15Q431.65 25.40 431.65 26.10Q431.65 26.35 431.60 26.50Q431.45 26.85 429.55 29.30Q428.40 30.70 427.53 31.85Q426.65 33 426.10 33.85Q425.20 35.25 424.75 36.48Q424.30 37.70 424.30 38.55Q424.30 38.90 424.40 39.40Q424.50 39.90 425.00 39.90Q426.15 39.90 428.60 37.90Q429.75 36.90 430.75 35.88Q431.75 34.85 432.65 33.85Q432.85 33.65 433.30 33.08Q433.75 32.50 433.85 32.50Q434.05 32.50 434.05 32.90Q434.05 33.10 433.83 33.58Q433.60 34.05 433.35 34.30Q432.80 34.95 431.73 36.10Q430.65 37.25 429.33 38.45Q428.00 39.65 426.75 40.50Q425.50 41.35 424.55 41.35ZM431.40 51.50Q429.90 51.50 428.85 50.25Q427.80 49 427.75 47.55Q427.90 46.95 428.20 46.95Q428.50 46.95 428.55 47.73Q428.60 48.50 429.35 49.25Q430.10 50 430.80 50Q433.70 50 436.90 46.25Q438.05 44.90 439.28 43.08Q440.50 41.25 441.65 38.95L444.15 34L440.40 37.80Q438.65 39.55 437.38 40.40Q436.10 41.25 435.40 41.25Q434.20 41.25 433.00 40.38Q431.80 39.50 431.65 38.35Q431.15 34.50 436.50 29.20Q441.85 23.95 446.05 23.95Q447.20 23.95 447.85 24.50Q448.20 24.80 448.38 25.40Q448.55 26 448.65 26Q448.85 26 449.00 25.92Q449.15 25.85 449.35 25.85Q450.00 25.85 450.43 26.30Q450.85 26.75 450.70 27.20Q450.65 27.65 449.25 29.90Q448.35 31.40 447.20 33.52Q446.05 35.65 444.78 37.92Q443.50 40.20 442.30 42.17Q441.10 44.15 440.15 45.40Q435.55 51.50 431.40 51.50M434.95 40.10Q437.85 40.10 442.85 33.75L448.15 26.45Q447.85 25.75 446.90 25.75Q443.80 25.75 438.60 30.65Q433.20 35.75 433.75 38.90Q434.00 40.10 434.95 40.10ZM461.50 24.05Q460.65 24.05 460.03 23.50Q459.40 22.95 459.40 22.25Q459.40 20.85 461.30 20.85Q462.00 20.85 462.70 21.32Q463.40 21.80 463.40 22.50Q463.40 23.10 462.75 23.57Q462.10 24.05 461.50 24.05M452.25 41.80Q451.15 41.80 450.43 41.08Q449.70 40.35 449.70 38.50Q449.70 37.45 450.18 36.08Q450.65 34.70 451.38 33.30Q452.10 31.90 452.80 30.80Q455.60 26.25 457.40 26.20Q457.85 26.20 458.50 26.57Q459.15 26.95 459.15 27.40Q459.15 27.40 455.35 32.30Q451.60 37.15 451.60 39.20Q451.60 40.80 452.85 40.80Q453.65 40.80 454.93 40.13Q456.20 39.45 457.60 38.40Q459.00 37.35 460.28 36.15Q461.55 34.95 462.35 33.95Q462.85 33.30 463.23 33.05Q463.60 32.80 463.70 32.80Q463.90 32.80 463.90 33.10Q463.90 33.35 463.33 34.10Q462.75 34.85 461.75 35.85Q460.55 37.05 459.10 38.45Q457.65 39.85 455.95 40.83Q454.25 41.80 452.25 41.80Z"/></g></g></svg>